<svg xmlns="http://www.w3.org/2000/svg" viewBox="0 0 242.12 242.12"><defs><style>.cls-1{fill:#62bbc7;}.cls-2{fill:#6dd1de;}.cls-3{fill:#7df0ff;}.cls-4{fill:#c2f8ff;}.cls-5{fill:#5995c1;}.cls-6{fill:#4b7ea3;}</style></defs><title>Asset 10</title><g id="Layer_2" data-name="Layer 2"><g id="Layer_1-2" data-name="Layer 1"><polygon class="cls-1" points="94.64 25.48 11.5 187.38 11.5 230.62 54.74 230.62 94.64 25.48"/><polygon class="cls-1" points="216.64 147.48 11.5 187.38 11.5 230.62 54.74 230.62 216.64 147.48"/><polygon class="cls-2" points="152.29 25.48 11.5 187.38 11.5 230.62 54.74 230.62 152.29 25.48"/><polygon class="cls-2" points="216.64 89.83 54.74 230.62 11.5 230.62 11.5 187.38 216.64 89.83"/><polygon class="cls-3" points="242.12 0 11.5 187.38 11.5 230.62 54.74 230.62 242.12 0"/><polygon class="cls-4" points="126.81 115.31 11.5 187.38 11.5 230.62 54.74 230.62 126.81 115.31"/><circle class="cls-3" cx="30.58" cy="211.54" r="30.58" transform="translate(-180.75 179.51) rotate(-73.15)"/><circle class="cls-5" cx="30.57" cy="211.54" r="27.02"/><path class="cls-6" d="M29.88,187.51a6,6,0,1,1-6,6A6,6,0,0,1,29.88,187.51Z"/><path class="cls-5" d="M29.56,187.11a4.94,4.94,0,1,1-4.94,4.94A4.93,4.93,0,0,1,29.56,187.11Z"/><circle class="cls-6" cx="49.03" cy="204.62" r="3.92"/><path class="cls-5" d="M48.83,200.44a3.25,3.25,0,1,1-3.25,3.24A3.25,3.25,0,0,1,48.83,200.44Z"/><circle class="cls-6" cx="39.28" cy="229.4" r="5.87"/><path class="cls-5" d="M39,223.15A4.85,4.85,0,1,1,34.12,228,4.85,4.85,0,0,1,39,223.15Z"/><path class="cls-6" d="M10.81,201.5a3.92,3.92,0,1,1-3.92,3.92A3.92,3.92,0,0,1,10.81,201.5Z"/><path class="cls-5" d="M10.6,201.23a3.25,3.25,0,1,1-3.25,3.25A3.26,3.26,0,0,1,10.6,201.23Z"/><circle class="cls-6" cx="23.64" cy="218.91" r="9.93"/><circle class="cls-5" cx="23.1" cy="216.54" r="8.22"/><rect class="cls-4" x="38.04" y="117.7" width="11.54" height="11.54" transform="translate(-74.48 67.14) rotate(-45)"/><rect class="cls-4" x="112.88" y="84.07" width="11.54" height="11.54" transform="translate(-28.76 110.27) rotate(-45.02)"/><rect class="cls-4" x="107.12" y="38.31" width="11.54" height="11.54" transform="translate(1.91 92.77) rotate(-45.02)"/><rect class="cls-4" x="197.25" y="67.36" width="11.54" height="11.55" transform="translate(7.74 164.95) rotate(-44.99)"/><rect class="cls-4" x="172.35" y="135.25" width="11.54" height="11.55" transform="translate(-47.55 167.26) rotate(-45)"/><rect class="cls-4" x="74.47" y="109.98" width="5.71" height="5.71" transform="translate(-57.14 87.72) rotate(-45)"/><rect class="cls-4" x="66.3" y="86.98" width="5.71" height="5.71" transform="translate(-43.26 75.21) rotate(-45)"/><rect class="cls-4" x="133.91" y="144.63" width="5.71" height="5.71" transform="translate(-64.23 139.8) rotate(-44.97)"/><rect class="cls-4" x="118.22" y="180.23" width="5.71" height="5.71" transform="translate(-93.98 139.13) rotate(-44.97)"/><rect class="cls-4" x="155.88" y="163.82" width="5.71" height="5.71" transform="translate(-71.36 160.95) rotate(-44.97)"/><rect class="cls-4" x="179.33" y="89.49" width="5.71" height="5.71" transform="translate(-11.97 155.77) rotate(-44.97)"/><rect class="cls-4" x="208.33" y="109.98" width="5.71" height="5.71" transform="translate(-17.93 182.37) rotate(-45)"/><rect class="cls-4" x="163.94" y="33.48" width="5.71" height="5.71" transform="translate(23.14 128.54) rotate(-44.98)"/><rect class="cls-4" x="175.29" y="3.72" width="5.71" height="5.71" transform="translate(47.5 127.85) rotate(-44.98)"/><rect class="cls-4" x="129.86" y="22.63" width="5.71" height="5.71" transform="translate(20.83 101.28) rotate(-44.98)"/></g></g></svg>