<svg xmlns="http://www.w3.org/2000/svg" viewBox="0 0 99.77 190.67"><defs><style>.cls-1{fill:#62bbc7;}.cls-2{fill:#6dd1de;}.cls-3{fill:#7df0ff;}.cls-4{fill:#c2f8ff;}.cls-5{fill:#5995c1;}.cls-6{fill:#4b7ea3;}</style></defs><title>Asset 11</title><g id="Layer_2" data-name="Layer 2"><g id="Layer_1-2" data-name="Layer 1"><polygon class="cls-1" points="0 70.72 32.2 170.9 49.88 188.58 67.56 170.9 0 70.72"/><polygon class="cls-1" points="99.77 70.72 32.2 170.9 49.88 188.58 67.56 170.9 99.77 70.72"/><polygon class="cls-2" points="23.57 47.15 32.2 170.9 49.88 188.58 67.56 170.9 23.57 47.15"/><polygon class="cls-2" points="76.19 47.15 67.56 170.9 49.88 188.58 32.2 170.9 76.19 47.15"/><polygon class="cls-3" points="49.88 0 32.2 170.9 49.88 188.58 67.56 170.9 49.88 0"/><polygon class="cls-4" points="49.88 94.29 32.2 170.9 49.88 188.58 67.56 170.9 49.88 94.29"/><circle class="cls-3" cx="49.88" cy="172.99" r="17.68" transform="translate(-75.72 44.01) rotate(-28.15)"/><circle class="cls-5" cx="49.88" cy="172.99" r="15.62"/><path class="cls-6" d="M39.77,163.45a3.44,3.44,0,1,1,0,4.87A3.43,3.43,0,0,1,39.77,163.45Z"/><path class="cls-5" d="M39.48,163.41a2.85,2.85,0,1,1,0,4A2.85,2.85,0,0,1,39.48,163.41Z"/><circle class="cls-6" cx="54.6" cy="162.61" r="2.27" transform="translate(-98.99 86.23) rotate(-45)"/><path class="cls-5" d="M52.8,161a1.88,1.88,0,1,1,0,2.66A1.89,1.89,0,0,1,52.8,161Z"/><circle class="cls-6" cx="60.74" cy="176.73" r="3.39"/><path class="cls-5" d="M58.06,174.3a2.8,2.8,0,1,1,0,4A2.79,2.79,0,0,1,58.06,174.3Z"/><path class="cls-6" d="M37.69,177a2.27,2.27,0,1,1,0,3.2A2.26,2.26,0,0,1,37.69,177Z"/><path class="cls-5" d="M37.5,176.94a1.88,1.88,0,1,1,0,2.66A1.88,1.88,0,0,1,37.5,176.94Z"/><circle class="cls-6" cx="50.06" cy="178.84" r="5.74" transform="translate(-111.8 87.78) rotate(-45)"/><circle class="cls-5" cx="48.87" cy="178.09" r="4.75" transform="translate(-111.61 86.72) rotate(-45)"/><rect class="cls-4" x="15.95" y="128.23" width="6.67" height="6.67"/><rect class="cls-4" x="32.79" y="83.88" width="6.67" height="6.67"/><rect class="cls-4" x="11.73" y="67.53" width="6.67" height="6.67"/><rect class="cls-4" x="60.46" y="42.55" width="6.68" height="6.67"/><rect class="cls-4" x="78.04" y="80.49" width="6.68" height="6.67"/><rect class="cls-4" x="26.99" y="111.86" width="3.3" height="3.3"/><rect class="cls-4" x="14.24" y="105.8" width="3.3" height="3.3"/><rect class="cls-4" x="65.46" y="101.73" width="3.3" height="3.3"/><rect class="cls-4" x="73.6" y="122.7" width="3.3" height="3.3"/><rect class="cls-4" x="82.29" y="100.59" width="3.3" height="3.3"/><rect class="cls-4" x="61.48" y="60.61" width="3.3" height="3.3"/><rect class="cls-4" x="81.72" y="57.14" width="3.3" height="3.3"/><rect class="cls-4" x="32.29" y="44" width="3.3" height="3.3"/><rect class="cls-4" x="24.76" y="27.2" width="3.3" height="3.3"/><rect class="cls-4" x="13.92" y="53.5" width="3.3" height="3.3"/></g></g></svg>