<?xml version="1.0" encoding="utf-8"?>
<!-- Generator: Adobe Illustrator 23.0.2, SVG Export Plug-In . SVG Version: 6.00 Build 0)  -->
<svg version="1.1" id="Layer_1" xmlns="http://www.w3.org/2000/svg" xmlns:xlink="http://www.w3.org/1999/xlink" x="0px" y="0px"
	 viewBox="0 0 103.9 502.2" style="enable-background:new 0 0 103.9 502.2;" xml:space="preserve">
<style type="text/css">
	.st0{fill:#33F233;}
	.st1{clip-path:url(#SVGID_2_);}
	.st2{fill:#DFE9EF;}
	.st3{fill:#333333;}
	.st4{fill:#29ABE2;}
</style>
<polygon class="st0" points="51.5,0.5 68.5,17.5 34.5,17.5 "/>
<title>Asset 9</title>
<g>
	<g id="Layer_1-2">
		<g>
			<g>
				<defs>
					<path id="SVGID_1_" d="M166.5,251c0,65.2-52.8,118-118,118s-118-52.8-118-118s52.8-118,118-118S166.5,185.8,166.5,251z M48.5,4
						c-136.4,0-247,110.6-247,247s110.6,247,247,247s247-110.6,247-247S184.9,4,48.5,4z"/>
				</defs>
				<clipPath id="SVGID_2_">
					<use xlink:href="#SVGID_1_"  style="overflow:visible;"/>
				</clipPath>
				<g class="st1">
					<polygon class="st2" points="8.7,376.2 0,206 51.4,213.9 103.1,207.1 89.8,376.2 84.5,383.6 49.3,387.8 27.9,387.8 					"/>
					<polygon class="st2" points="25.5,475.5 20.9,390 26.7,385.7 78.9,385.7 78.9,390 73.8,475.5 50.6,486 					"/>
					<path class="st3" d="M73.8,475.5c-7.9,2-16,3.1-24.2,3.2c-8.1-0.1-16.2-1.2-24.1-3.2L26,486c0,0,7.3,3.2,23.7,3.2
						s23.7-3.2,23.7-3.2L73.8,475.5z"/>
					<path class="st3" d="M89.8,376.2c-13.3,3-26.9,4.6-40.6,4.8c-13.7-0.2-27.2-1.8-40.6-4.8l1,13.2c0,0,12.3,4.8,39.6,4.8
						s39.2-4.8,39.2-4.8L89.8,376.2z"/>
					<path class="st3" d="M103.2,206.3l0.6-16.1c0.4-8.9-22.4-16.2-50.9-16.3S1,181,0.7,189.9L0,206c-0.4,8.9,22.4,16.2,51,16.3
						S102.9,215.2,103.2,206.3z"/>
					<path class="st4" d="M51.7,206.2c23.9,0.1,44.1-4.9,50.3-11.8c-4.8-7.2-25.2-12.7-49.9-12.8c-23.9-0.1-44.1,4.9-50.3,11.8
						C6.6,200.6,27,206.1,51.7,206.2z"/>
					<ellipse class="st3" cx="51.7" cy="247.4" rx="10" ry="10"/>
					<polygon class="st2" points="8.7,215.2 0,45 51.4,52.9 103.1,46.1 89.8,215.2 84.5,222.6 49.3,226.8 27.9,226.8 					"/>
					<polygon class="st2" points="25.5,314.5 20.9,229 26.7,224.7 78.9,224.7 78.9,229 73.8,314.5 50.6,325 					"/>
					<path class="st3" d="M73.8,314.5c-7.9,2-16,3.1-24.2,3.2c-8.1-0.1-16.2-1.2-24.1-3.2L26,325c0,0,7.3,3.2,23.7,3.2
						s23.7-3.2,23.7-3.2L73.8,314.5z"/>
					<path class="st3" d="M89.8,215.2c-13.3,3-26.9,4.6-40.6,4.8c-13.7-0.2-27.2-1.8-40.6-4.8l1,13.2c0,0,12.3,4.8,39.6,4.8
						s39.2-4.8,39.2-4.8L89.8,215.2z"/>
					<path class="st3" d="M103.2,45.3l0.6-16.1c0.4-8.9-22.4-16.2-50.9-16.3S1,20,0.7,28.9L0,45c-0.4,8.9,22.4,16.2,51,16.3
						S102.9,54.2,103.2,45.3z"/>
					<path class="st4" d="M51.7,45.2c23.9,0.1,44.1-4.9,50.3-11.8c-4.8-7.2-25.2-12.7-49.9-12.8C28.3,20.5,8,25.5,1.8,32.4
						C6.6,39.6,27,45.1,51.7,45.2z"/>
					<ellipse class="st3" cx="51.7" cy="86.4" rx="10" ry="10"/>
				</g>
			</g>
		</g>
	</g>
</g>
</svg>
