<svg xmlns="http://www.w3.org/2000/svg" xmlns:xlink="http://www.w3.org/1999/xlink" viewBox="0 0 103.9 476.25"><defs><style>.cls-1{fill:none;}.cls-2{clip-path:url(#clip-path);}.cls-3{fill:#dfe9ef;}.cls-4{fill:#333;}.cls-5{fill:#29abe2;}</style><clipPath id="clip-path" transform="translate(-198.47 -9)"><path class="cls-1" d="M365,247A118,118,0,1,1,247,129,118,118,0,0,1,365,247ZM247,0C110.59,0,0,110.59,0,247S110.59,494,247,494,494,383.41,494,247,383.41,0,247,0Z"/></clipPath></defs><title>Asset 9</title><g id="Layer_2" data-name="Layer 2"><g id="Layer_1-2" data-name="Layer 1"><g class="cls-2"><polygon class="cls-3" points="8.69 363.24 0.02 193.02 51.38 200.9 103.14 194.15 89.85 363.24 84.47 370.59 49.25 374.86 27.9 374.86 8.69 363.24"/><polygon class="cls-3" points="25.47 462.49 20.9 377 26.7 372.73 78.91 372.73 78.91 377 73.82 462.49 50.62 473.05 25.47 462.49"/><path class="cls-4" d="M272.29,471.5a102.57,102.57,0,0,1-24.17,3.21A102.57,102.57,0,0,1,224,471.5l.45,10.55s7.29,3.2,23.72,3.2,23.72-3.2,23.72-3.2Z" transform="translate(-198.47 -9)"/><path class="cls-4" d="M288.27,372.25a195.08,195.08,0,0,1-40.55,4.8,195.23,195.23,0,0,1-40.56-4.8l1,13.21s12.34,4.81,39.56,4.81,39.17-4.81,39.17-4.81Z" transform="translate(-198.47 -9)"/><path class="cls-4" d="M301.71,202.35l.65-16.09c.37-8.89-22.44-16.17-50.94-16.26s-51.92,7-52.28,15.94L198.47,202c-.36,8.89,22.45,16.17,51,16.26S301.34,211.24,301.71,202.35Z" transform="translate(-198.47 -9)"/><path class="cls-5" d="M250.17,202.19c23.88.07,44.13-4.93,50.3-11.78-4.8-7.24-25.18-12.7-49.86-12.78-23.88-.08-44.13,4.93-50.3,11.77C205.11,196.64,225.49,202.11,250.17,202.19Z" transform="translate(-198.47 -9)"/><circle class="cls-4" cx="250.17" cy="243.42" r="9.97" transform="translate(-256.17 69.94) rotate(-16.1)"/><polygon class="cls-3" points="8.69 202.24 0.02 32.02 51.38 39.9 103.14 33.15 89.85 202.24 84.47 209.59 49.25 213.86 27.9 213.86 8.69 202.24"/><polygon class="cls-3" points="25.47 301.49 20.9 216 26.7 211.73 78.91 211.73 78.91 216 73.82 301.49 50.62 312.05 25.47 301.49"/><path class="cls-4" d="M272.29,310.5a102.57,102.57,0,0,1-24.17,3.21A102.57,102.57,0,0,1,224,310.5l.45,10.55s7.29,3.2,23.72,3.2,23.72-3.2,23.72-3.2Z" transform="translate(-198.47 -9)"/><path class="cls-4" d="M288.27,211.25a195.08,195.08,0,0,1-40.55,4.8,195.23,195.23,0,0,1-40.56-4.8l1,13.21s12.34,4.81,39.56,4.81,39.17-4.81,39.17-4.81Z" transform="translate(-198.47 -9)"/><path class="cls-4" d="M301.71,41.35l.65-16.09c.37-8.89-22.44-16.17-50.94-16.26s-51.92,7-52.28,15.94L198.47,41c-.36,8.89,22.45,16.17,51,16.26S301.34,50.24,301.71,41.35Z" transform="translate(-198.47 -9)"/><path class="cls-5" d="M250.17,41.19c23.88.07,44.13-4.93,50.3-11.78-4.8-7.24-25.18-12.7-49.86-12.78-23.88-.08-44.13,4.93-50.3,11.77C205.11,35.64,225.49,41.11,250.17,41.19Z" transform="translate(-198.47 -9)"/><circle class="cls-4" cx="250.17" cy="82.42" r="9.97" transform="translate(-211.51 63.62) rotate(-16.1)"/></g></g></g></svg>