<?xml version="1.0" encoding="utf-8"?>
<!-- Generator: Adobe Illustrator 23.0.2, SVG Export Plug-In . SVG Version: 6.00 Build 0)  -->
<svg version="1.1" id="Layer_1" xmlns="http://www.w3.org/2000/svg" xmlns:xlink="http://www.w3.org/1999/xlink" x="0px" y="0px"
	 viewBox="0 0 103.9 476.3" style="enable-background:new 0 0 103.9 476.3;" xml:space="preserve">
<style type="text/css">
	.st0{clip-path:url(#SVGID_2_);}
	.st1{fill:#DFE9EF;}
	.st2{fill:#333333;}
	.st3{fill:#29ABE2;}
</style>
<title>Asset 9</title>
<g>
	<g id="Layer_1-2">
		<g>
			<defs>
				<path id="SVGID_1_" d="M-62.5,238c0-65.2,52.8-118,118-118s118,52.8,118,118s-52.8,118-118,118S-62.5,303.2-62.5,238z M55.5,485
					c136.4,0,247-110.6,247-247S191.9-9,55.5-9s-247,110.6-247,247S-80.9,485,55.5,485z"/>
			</defs>
			<clipPath id="SVGID_2_">
				<use xlink:href="#SVGID_1_"  style="overflow:visible;"/>
			</clipPath>
			<g class="st0">
				<polygon class="st1" points="95.4,112.8 104,283 52.7,275.1 0.9,281.9 14.2,112.8 19.6,105.4 54.8,101.1 76.2,101.1 				"/>
				<polygon class="st1" points="78.6,13.5 83.2,99 77.4,103.3 25.1,103.3 25.1,99 30.2,13.5 53.4,3 				"/>
				<path class="st2" d="M30.2,13.5c7.9-2,16-3.1,24.2-3.2c8.1,0.1,16.2,1.2,24.1,3.2L78.1,3c0,0-7.3-3.2-23.7-3.2S30.6,3,30.6,3
					L30.2,13.5z"/>
				<path class="st2" d="M14.3,112.8c13.3-3,26.9-4.6,40.6-4.8c13.7,0.2,27.2,1.8,40.6,4.8l-1-13.2c0,0-12.3-4.8-39.6-4.8
					s-39.2,4.8-39.2,4.8L14.3,112.8z"/>
				<path class="st2" d="M0.8,282.6l-0.6,16.1c-0.4,8.9,22.4,16.2,50.9,16.3c28.5,0.1,51.9-7,52.3-15.9l0.7-16.1
					c0.4-8.9-22.4-16.2-51-16.3C24.5,266.7,1.2,273.8,0.8,282.6z"/>
				<path class="st3" d="M52.4,282.8c-23.9-0.1-44.1,4.9-50.3,11.8c4.8,7.2,25.2,12.7,49.9,12.8c23.9,0.1,44.1-4.9,50.3-11.8
					C97.4,288.4,77,282.9,52.4,282.8z"/>
				<ellipse transform="matrix(0.9928 -0.1198 0.1198 0.9928 -28.5701 8.0162)" class="st2" cx="52.4" cy="241.6" rx="10" ry="10"/>
				<polygon class="st1" points="95.4,273.8 104,444 52.7,436.1 0.9,442.9 14.2,273.8 19.6,266.4 54.8,262.1 76.2,262.1 				"/>
				<polygon class="st1" points="78.6,174.5 83.2,260 77.4,264.3 25.1,264.3 25.1,260 30.2,174.5 53.4,164 				"/>
				<path class="st2" d="M30.2,174.5c7.9-2,16-3.1,24.2-3.2c8.1,0.1,16.2,1.2,24.1,3.2L78.1,164c0,0-7.3-3.2-23.7-3.2
					S30.6,164,30.6,164L30.2,174.5z"/>
				<path class="st2" d="M14.3,273.8c13.3-3,26.9-4.6,40.6-4.8c13.7,0.2,27.2,1.8,40.6,4.8l-1-13.2c0,0-12.3-4.8-39.6-4.8
					s-39.2,4.8-39.2,4.8L14.3,273.8z"/>
				<path class="st2" d="M0.8,443.6l-0.6,16.1c-0.4,8.9,22.4,16.2,50.9,16.3s51.9-7,52.3-15.9l0.7-16.1c0.4-8.9-22.4-16.2-51-16.3
					C24.5,427.6,1.2,434.8,0.8,443.6z"/>
				<path class="st3" d="M52.4,443.8c-23.9-0.1-44.1,4.9-50.3,11.8c4.8,7.2,25.2,12.7,49.9,12.8c23.9,0.1,44.1-4.9,50.3-11.8
					C97.4,449.4,77,443.9,52.4,443.8z"/>
				<ellipse transform="matrix(0.9928 -0.1198 0.1198 0.9928 -47.8641 9.1749)" class="st2" cx="52.4" cy="402.6" rx="10" ry="10"/>
			</g>
		</g>
	</g>
</g>
</svg>
