<?xml version="1.0" encoding="utf-8"?>
<!-- Generator: Adobe Illustrator 23.0.2, SVG Export Plug-In . SVG Version: 6.00 Build 0)  -->
<svg version="1.1" id="Layer_1" xmlns="http://www.w3.org/2000/svg" xmlns:xlink="http://www.w3.org/1999/xlink" x="0px" y="0px"
	 viewBox="0 0 79.1 149" style="enable-background:new 0 0 79.1 149;" xml:space="preserve">
<style type="text/css">
	.st0{fill:#33F233;}
	.st1{fill:#D0D0D0;}
	.st2{fill:#94989B;}
	.st3{fill:#7F8285;}
	.st4{fill:#646669;}
	.st5{fill:#3E4347;}
	.st6{fill:#428BC1;}
	.st7{fill:#42ADE2;}
</style>
<polygon class="st0" points="60.8,64.9 62.9,64.9 76.3,73.8 74.4,76 60.8,85.2 "/>
<title>Asset 15</title>
<g>
	<g id="sky_background">
		<path class="st1" d="M45.2,74.6c0,9.6,7.8,17.3,17.3,17.3V57.3C53,57.2,45.2,65,45.2,74.6C45.2,74.5,45.2,74.5,45.2,74.6z"/>
		<path class="st2" d="M37.4,74.6c0-12.8,0-12.8,5.2-12.8s5.2,0,5.2,12.8s0,12.8-5.2,12.8S37.4,87.4,37.4,74.6z"/>
		<path class="st3" d="M7.1,74.6c0-12.8,0-12.8,5.2-12.8H33c5.2,0,5.2,0,5.2,12.8s0,12.8-5.2,12.8H12.3C7.1,87.4,7.1,87.4,7.1,74.6z
			"/>
		<path class="st4" d="M0,74.6C0,65,0,65,3.9,64.9s3.9,0,3.9,9.6s0,9.6-3.9,9.6S0,84.2,0,74.6z"/>
		<path class="st2" d="M62.5,85.2l12.6-8.6c1,0.8,2.6,0.7,3.4-0.4s0.7-2.6-0.4-3.4c-0.4-0.4-1-0.5-1.5-0.5s-0.9,0.1-1.3,0.4L62.5,64
			v2.4l0.2-0.3L74.3,74c-0.1,0.2-0.1,0.5-0.1,0.7s0,0.3,0.1,0.5l-11.6,7.9l-0.2-0.3L62.5,85.2z"/>
		<rect x="21.2" y="57.3" class="st5" width="2.7" height="4.5"/>
		<rect x="21.2" y="87.4" class="st5" width="2.7" height="4.4"/>
		<path class="st6" d="M8.1,57.3c-0.6,0-1-0.4-1-1L7.1,1c0-0.6,0.4-1,1-1H37c0.6,0,1,0.4,1,1v55.3c0,0.6-0.4,1-1,1H8.1z"/>
		<path class="st6" d="M8.1,57.3c-0.6,0-1-0.4-1-1L7.1,1c0-0.6,0.4-1,1-1H37c0.6,0,1,0.4,1,1v55.3c0,0.6-0.4,1-1,1H8.1z"/>
		<path class="st6" d="M8.1,149c-0.6,0-1-0.4-1-1V92.7c0-0.6,0.4-1,1-1h29c0.6,0,1,0.4,1,1V148c0,0.6-0.4,1-1,1H8.1z"/>
		<polygon class="st7" points="35.8,2.3 33.8,2.3 9.3,26.7 9.3,41.9 35.8,15.4 		"/>
		<polygon class="st7" points="11.4,55 35.8,30.6 35.8,23 9.3,49.5 9.4,55 		"/>
		<polygon class="st7" points="35.8,94 33.8,94 9.4,118.5 9.4,133.6 35.8,107.2 		"/>
		<polygon class="st7" points="11.4,146.8 35.8,122.3 35.8,114.8 9.4,141.2 9.4,146.8 		"/>
	</g>
</g>
</svg>
