<?xml version="1.0" encoding="utf-8"?>
<!-- Generator: Adobe Illustrator 23.0.2, SVG Export Plug-In . SVG Version: 6.00 Build 0)  -->
<svg version="1.1" id="Layer_1" xmlns="http://www.w3.org/2000/svg" xmlns:xlink="http://www.w3.org/1999/xlink" x="0px" y="0px"
	 viewBox="0 0 115 122.5" style="enable-background:new 0 0 115 122.5;" xml:space="preserve">
<style type="text/css">
	.st0{fill:none;stroke:#FFFFFF;stroke-width:3;stroke-miterlimit:10;}
	.st1{fill:#FFFFFF;}
	.st2{fill:#FFE8A6;}
</style>
<title>Asset 13</title>
<circle class="st0" cx="57.5" cy="65" r="56"/>
<path class="st1" d="M35.8,45.1c0.5-2,0.8-3.6,1.3-5.3c0.1-0.3,0.4-0.5,0.7-0.6c5.2-2.1,10.4-4.3,16-4.8c4.7-0.5,9.4,0,13.4,3
	c3.7,2.8,5,6.5,4.9,11c-0.1,5.3-1.6,10.3-3,15.3c-1.8,6.9-4.2,13.6-5,20.7c0,0.2,0,0.3-0.1,0.4c-0.6,4.6,1.4,7.2,6.1,7.3
	c2.1-0.1,4.2-0.4,6.3-0.8c1-0.2,2-0.6,2.9-0.9c-0.5,2-0.9,3.8-1.3,5.5c-0.1,0.2-0.4,0.4-0.7,0.5c-4.3,1.5-8.6,3.3-13,4.4
	c-4.4,1.1-9.1,0.8-13.4-0.9c-5.3-1.9-8.6-7.1-8.2-12.7c0.2-5.4,1.7-10.5,3.1-15.6c1.7-6.3,3.4-12.6,4.9-18.9
	c0.3-1.4,0.3-2.9,0.2-4.3c-0.3-3.1-1.7-4.4-4.8-4.8c-2.8-0.3-5.7,0.1-8.4,1.1C37.1,44.8,36.6,44.9,35.8,45.1z"/>
<path class="st2" d="M76.6,20.3c2.7-2.3,4.1-5.8,3.8-9.3C80,4.6,74.2,0.1,68.2,0C61.8-0.1,56,4.5,55.4,10.5
	c-0.8,7.2,4.9,13.1,13.1,13.1C71.5,23.6,74.4,22.4,76.6,20.3z"/>
</svg>
