<?xml version="1.0" encoding="utf-8"?>
<!-- Generator: Adobe Illustrator 23.0.2, SVG Export Plug-In . SVG Version: 6.00 Build 0)  -->
<svg version="1.1" id="Layer_1" xmlns="http://www.w3.org/2000/svg" xmlns:xlink="http://www.w3.org/1999/xlink" x="0px" y="0px"
	 viewBox="0 0 115 124.1" style="enable-background:new 0 0 115 124.1;" xml:space="preserve">
<style type="text/css">
	.st0{fill:none;stroke:#FFFFFF;stroke-width:3;stroke-miterlimit:10;}
	.st1{fill:#FFFFFF;}
	.st2{fill:#FFE8A6;}
</style>
<title>Asset 14</title>
<g>
	<g id="Layer_1-2">
		<circle class="st0" cx="57.5" cy="57.5" r="56"/>
		<path class="st1" d="M47.8,91.1l-0.2-3.8c-0.5-7.5,2.2-15.1,9-23c4.9-5.6,8.9-10.3,8.9-15.3s-3.5-8.5-11.2-8.8
			c-5.4,0.1-10.6,1.6-15.1,4.4l-5.2-16c5.5-3.1,14.7-6,25.5-6C79.8,22.5,89,33.2,89,45.4c0,11.2-7.2,18.5-13,24.7
			c-5.7,6-7.9,11.7-7.8,18.3v2.6H47.8z"/>
		<path class="st2" d="M46,112.1c0-7,5.1-12,12.2-12c7.4,0,12.2,5,12.3,12s-4.9,12-12.3,12S46,118.9,46,112.1z"/>
	</g>
</g>
</svg>
