<svg xmlns="http://www.w3.org/2000/svg" viewBox="0 0 357.45 337.52"><defs><style>.cls-1{fill:#464d51;}.cls-2{fill:#fff;}</style></defs><title>Asset 17</title><g id="Layer_2" data-name="Layer 2"><g id="sky_background" data-name="sky background"><path class="cls-1" d="M357.45.68c-7-.43-14-.68-21.12-.68C150.88,0,0,150.88,0,337.52H146.69c0-105.76,85.07-190.83,189.64-190.83a191.37,191.37,0,0,1,21.12,1.18Z"/><polygon class="cls-2" points="44.73 298.8 12.22 294.74 12.04 296.13 44.56 300.2 44.73 298.8"/><polygon class="cls-2" points="51.53 263.57 19.76 255.56 19.42 256.92 51.19 264.94 51.53 263.57"/><rect class="cls-2" x="29.59" y="268.58" width="1.41" height="32.77" transform="translate(-255.78 267.96) rotate(-80.53)"/><polygon class="cls-2" points="43.41 310.69 10.76 307.94 10.65 309.35 43.3 312.09 43.41 310.69"/><polygon class="cls-2" points="54.54 251.98 23.12 242.67 22.72 244.02 54.14 253.33 54.54 251.98"/><rect class="cls-2" x="74.85" y="151.54" width="1.41" height="32.77" transform="translate(-106.47 140.12) rotate(-57.09)"/><polygon class="cls-2" points="66.88 218.28 36.84 205.19 36.28 206.49 66.32 219.58 66.32 219.58 86.34 228.3 86.91 227.01 66.88 218.28 66.88 218.28"/><polygon class="cls-2" points="16.16 269.84 48.23 276.54 48.23 276.54 69.61 281.01 69.9 279.63 16.44 268.45 16.16 269.84"/><rect class="cls-2" x="25.68" y="306.26" width="1.41" height="32.76" transform="translate(-297.1 334.92) rotate(-87.5)"/><rect class="cls-2" x="35.98" y="307.99" width="1.41" height="54.61" transform="translate(-298.74 370.83) rotate(-89.8)"/><rect class="cls-2" x="97.21" y="120.95" width="1.41" height="32.77" transform="translate(-70.25 124.42) rotate(-50.12)"/><polygon class="cls-2" points="58.31 240.63 27.3 230.04 26.85 231.38 57.85 241.96 58.31 240.63"/><polygon class="cls-2" points="144.69 113.38 123.27 88.59 122.2 89.51 143.63 114.3 144.69 113.38"/><polygon class="cls-2" points="193.65 79.11 177.66 50.51 176.43 51.2 192.42 79.8 193.65 79.11"/><rect class="cls-2" x="89.5" y="130.95" width="1.41" height="32.77" transform="translate(-81.58 129.04) rotate(-52.44)"/><polygon class="cls-2" points="96.42 166.34 69.66 147.44 68.84 148.59 113.45 180.09 114.27 178.94 96.42 166.34 96.42 166.34"/><polygon class="cls-2" points="72.11 207.51 42.63 193.2 42.01 194.47 71.49 208.78 72.11 207.51"/><rect class="cls-2" x="46.22" y="207.74" width="1.41" height="32.77" transform="translate(-179 186.82) rotate(-68.8)"/><rect class="cls-2" x="68.28" y="162.34" width="1.41" height="32.76" transform="translate(-119.98 147.22) rotate(-59.43)"/><polygon class="cls-2" points="77.32 196.73 48.46 181.23 47.79 182.47 76.66 197.97 77.32 196.73"/><rect class="cls-2" x="266.7" y="17.26" width="1.41" height="32.77" transform="translate(-0.82 59.96) rotate(-12.78)"/><polygon class="cls-2" points="224.85 29.21 235.96 60.03 235.96 60.03 243.37 80.58 244.7 80.1 226.18 28.73 224.85 29.21"/><polygon class="cls-2" points="289.27 13.06 293.89 45.5 293.89 45.5 296.96 67.12 298.36 66.92 290.67 12.86 289.27 13.06"/><polygon class="cls-2" points="276.11 15.11 282.05 47.33 283.44 47.08 277.5 14.85 276.11 15.11"/><rect class="cls-2" x="254.46" y="20.4" width="1.41" height="32.77" transform="translate(-0.76 67.87) rotate(-15.13)"/><rect class="cls-2" x="242.24" y="23.66" width="1.41" height="32.77" transform="translate(-0.81 74.81) rotate(-17.48)"/><rect class="cls-2" x="304.07" y="10.92" width="1.41" height="32.76" transform="translate(-1.2 30.76) rotate(-5.77)"/><polygon class="cls-2" points="353.66 10.26 354.13 64.86 355.54 64.85 355.07 10.24 353.66 10.26"/><rect class="cls-2" x="326.26" y="25.31" width="32.77" height="1.41" transform="translate(310.04 368.1) rotate(-88.9)"/><rect class="cls-2" x="329.31" y="9.64" width="1.41" height="32.77" transform="translate(-0.46 6.63) rotate(-1.15)"/><polygon class="cls-2" points="315.7 10.34 317.68 43.05 319.09 42.96 317.12 10.26 315.7 10.34"/><rect class="cls-2" x="162.73" y="61.9" width="1.41" height="32.77" transform="matrix(0.83, -0.56, 0.56, 0.83, -15.89, 104.38)"/><polygon class="cls-2" points="135.81 121.41 113.4 97.51 112.37 98.48 149.73 138.31 150.76 137.34 135.81 121.41 135.81 121.41"/><rect class="cls-2" x="142.43" y="76.97" width="1.41" height="32.77" transform="translate(-26.99 109.47) rotate(-38.52)"/><polygon class="cls-2" points="102.74 107.64 126.11 130.62 127.1 129.61 103.73 106.64 102.74 107.64"/><polygon class="cls-2" points="143.01 72.97 162.36 99.41 163.5 98.58 144.15 72.14 143.01 72.97"/><polygon class="cls-2" points="212.36 33.83 224.73 64.17 226.03 63.64 213.66 33.3 212.36 33.83"/><polygon class="cls-2" points="188.22 45.05 203.03 74.28 204.29 73.64 189.48 44.41 188.22 45.05"/><rect class="cls-2" x="105.71" y="111.59" width="1.41" height="32.77" transform="translate(-59.87 120.85) rotate(-47.8)"/><polygon class="cls-2" points="200.21 39.24 213.81 69.05 215.09 68.47 201.49 38.66 200.21 39.24"/><polygon class="cls-2" points="165.06 58.12 182.2 86.05 182.2 86.05 193.63 104.66 194.83 103.92 166.27 57.38 165.06 58.12"/><polygon class="cls-2" points="158.62 215.42 179.2 230.56 179.99 229.39 159.46 214.28 158.62 215.42"/><polygon class="cls-2" points="185.6 183.01 202.85 201.9 203.85 200.9 186.64 182.06 185.6 183.01"/><polygon class="cls-2" points="125.96 292.74 150.58 298.8 150.87 297.42 126.3 291.36 125.96 292.74"/><polygon class="cls-2" points="121.53 334.67 146.7 335.81 146.72 334.39 121.6 333.26 121.53 334.67"/><polygon class="cls-2" points="138.48 252.47 161.54 263.27 162.09 261.96 139.08 251.19 138.48 252.47"/><polygon class="cls-2" points="336.98 146.69 338.39 146.7 339.55 121.14 338.14 121.07 336.98 146.69"/><polygon class="cls-2" points="218.38 156.48 231.61 178.36 232.78 177.58 219.59 155.76 218.38 156.48"/><polygon class="cls-2" points="296.14 124.91 300 150.19 301.38 149.92 297.54 124.69 296.14 124.91"/><polygon class="cls-2" points="255.71 136.87 264.4 160.88 265.71 160.34 257.04 136.39 255.71 136.87"/></g></g></svg>