<svg xmlns="http://www.w3.org/2000/svg" viewBox="0 0 115 122.49"><defs><style>.cls-1{fill:none;stroke:#fff;stroke-miterlimit:10;stroke-width:3px;}.cls-2{fill:#fff;}</style></defs><title>Asset 13</title><g id="Layer_2" data-name="Layer 2"><g id="Layer_1-2" data-name="Layer 1"><circle class="cls-1" cx="57.5" cy="64.99" r="56"/><path class="cls-2" d="M35.82,45.15c.45-2,.81-3.63,1.25-5.29a1.24,1.24,0,0,1,.7-.62c5.21-2.09,10.41-4.26,16-4.8,4.74-.45,9.38,0,13.39,3,3.68,2.76,5,6.54,4.88,11-.11,5.29-1.62,10.27-3,15.3C67.19,70.6,64.81,77.31,64,84.4c0,.15-.05.29-.07.43-.6,4.64,1.42,7.23,6.06,7.33a32.78,32.78,0,0,0,6.27-.83,24.11,24.11,0,0,0,2.93-.92c-.48,2-.88,3.76-1.35,5.5-.05.21-.4.41-.65.5-4.33,1.49-8.59,3.29-13,4.36a21.75,21.75,0,0,1-13.39-.9,12.55,12.55,0,0,1-8.17-12.72c.21-5.37,1.69-10.46,3.11-15.58q2.59-9.42,4.89-18.92a13.58,13.58,0,0,0,.16-4.32c-.27-3.09-1.67-4.41-4.78-4.78a18.48,18.48,0,0,0-8.4,1.08C37.06,44.79,36.57,44.92,35.82,45.15ZM76.64,20.31A10.94,10.94,0,0,0,80.47,11C80,4.62,74.15.11,68.17,0,61.79-.11,56,4.54,55.38,10.47c-.78,7.19,4.88,13.11,13.09,13.12A12,12,0,0,0,76.64,20.31Z"/></g></g></svg>