<?xml version="1.0" encoding="utf-8"?>
<!-- Generator: Adobe Illustrator 23.0.2, SVG Export Plug-In . SVG Version: 6.00 Build 0)  -->
<svg version="1.1" id="Layer_1" xmlns="http://www.w3.org/2000/svg" xmlns:xlink="http://www.w3.org/1999/xlink" x="0px" y="0px"
	 viewBox="0 0 180 180" style="enable-background:new 0 0 180 180;" xml:space="preserve">
<style type="text/css">
	.st0{fill:#FFE8A6;}
	.st1{fill:#605175;}
	.st2{fill:#F4D192;}
	.st3{fill:#6D5C87;}
</style>
<title>Asset 5</title>
<g>
	<g id="Layer_1-2">
		<path class="st0" d="M141,90c0-49.7-22.8-90-51-90C40.3,0,0,40.3,0,90s40.3,90,90,90C118.2,180,141,139.7,141,90z"/>
		<path class="st1" d="M90,0c28.2,0,51,40.3,51,90s-22.8,90-51,90c49.7,0,90-40.3,90-90S139.7,0,90,0z"/>
		<path class="st2" d="M140.6,79c-11.4,1.9-19.2,12.7-17.3,24.2c1.3,7.9,7.1,14.4,14.8,16.7C140,110,141,100,141,90
			C141,86.3,140.9,82.6,140.6,79z"/>
		<path class="st2" d="M66.5,117.1c-0.4,0-0.8,0-1.2,0.1c3.4-9.4-1.5-19.7-10.9-23c-9.4-3.4-19.7,1.5-23,10.9s1.5,19.7,10.9,23
			c0.7,0.2,1.4,0.4,2.1,0.6c-8.5,12.2-5.5,29.1,6.7,37.6s29.1,5.5,37.6-6.7s5.5-29.1-6.7-37.6C77.4,118.8,72,117.1,66.5,117.1z"/>
		<path class="st2" d="M66,57.7c6.6,0.1,11.9-5.2,12-11.8c0-1.9-0.4-3.8-1.3-5.6c7.8,2.7,16.4-1.6,19-9.4c2.7-7.8-1.6-16.4-9.4-19
			s-16.4,1.6-19,9.4c-1.4,4.2-0.9,8.9,1.5,12.7c-6.4-1.6-12.9,2.3-14.5,8.8s2.3,12.9,8.8,14.5C64,57.6,65,57.8,66,57.7z"/>
		<circle class="st2" cx="105" cy="48.7" r="12"/>
		<circle class="st2" cx="30.4" cy="71.8" r="12"/>
		<circle class="st2" cx="111" cy="21.7" r="6"/>
		<circle class="st2" cx="18.4" cy="111.1" r="6"/>
		<circle class="st2" cx="69" cy="83.8" r="9"/>
		<circle class="st2" cx="39" cy="41.2" r="6"/>
		<path class="st2" d="M120,151.9c0,2.7,0.9,5.3,2.6,7.4c4-6,7.3-12.5,9.9-19.3c-0.1,0-0.3,0-0.4,0C125.4,139.9,120,145.3,120,151.9
			z"/>
		<path class="st3" d="M165,99.8c0.1-11.5-9.1-20.9-20.7-21.1c-1.2,0-2.5,0.1-3.7,0.3c0.3,3.6,0.4,7.3,0.4,11c0,10-1,20-2.9,29.9
			c11.1,3.3,22.8-3.1,26-14.3C164.7,103.7,165,101.7,165,99.8z"/>
		<circle class="st3" cx="150" cy="144.1" r="6"/>
		<path class="st3" d="M132,163.9c6.6,0.1,12.1-5.2,12.2-11.8s-5.2-12.1-11.8-12.2c-2.5,6.8-5.8,13.3-9.8,19.3
			C124.8,162.1,128.3,163.8,132,163.9z"/>
	</g>
</g>
</svg>
