<svg xmlns="http://www.w3.org/2000/svg" viewBox="0 0 180 180"><defs><style>.cls-1{fill:#3e4347;}.cls-2{fill:#464d51;}</style></defs><title>Asset 2</title><g id="Layer_2" data-name="Layer 2"><g id="Layer_1-2" data-name="Layer 1"><circle class="cls-1" cx="90" cy="90" r="90"/><circle class="cls-2" cx="144" cy="99.75" r="21"/><circle class="cls-2" cx="48.36" cy="111.14" r="18"/><circle class="cls-2" cx="66.47" cy="144.14" r="27" transform="translate(-50.1 36.41) rotate(-22.5)"/><circle class="cls-2" cx="65.99" cy="45.74" r="12" transform="matrix(0.53, -0.85, 0.85, 0.53, -7.61, 77.83)"/><circle class="cls-2" cx="104.99" cy="48.74" r="12"/><circle class="cls-2" cx="30.36" cy="71.77" r="12"/><circle class="cls-2" cx="110.99" cy="21.74" r="6"/><circle class="cls-2" cx="18.36" cy="111.14" r="6"/><circle class="cls-2" cx="150" cy="144.14" r="6"/><circle class="cls-2" cx="68.99" cy="83.77" r="9" transform="matrix(0.92, -0.38, 0.38, 0.92, -26.81, 32.78)"/><circle class="cls-2" cx="38.99" cy="41.24" r="6"/><circle class="cls-2" cx="132" cy="151.87" r="12"/><path class="cls-2" d="M66.47,26.25a15,15,0,1,0,15-15A15,15,0,0,0,66.47,26.25Z"/></g></g></svg>