<?xml version="1.0" encoding="utf-8"?>
<!-- Generator: Adobe Illustrator 23.0.2, SVG Export Plug-In . SVG Version: 6.00 Build 0)  -->
<svg version="1.1" id="Layer_1" xmlns="http://www.w3.org/2000/svg" xmlns:xlink="http://www.w3.org/1999/xlink" x="0px" y="0px"
	 viewBox="0 0 180 180" style="enable-background:new 0 0 180 180;" xml:space="preserve">
<style type="text/css">
	.st0{fill:#FFE8A6;}
	.st1{fill:#605175;}
	.st2{fill:#F4D192;}
	.st3{fill:#6D5C87;}
</style>
<title>Asset 7</title>
<g>
	<g id="Layer_1-2">
		<path class="st0" d="M90,0c-3.3,0-6,40.3-6,90s2.7,90,6,90c49.7,0,90-40.3,90-90S139.7,0,90,0z"/>
		<path class="st1" d="M84,90c0-49.7,2.7-90,6-90C40.3,0,0,40.3,0,90s40.3,90,90,90C86.7,180,84,139.7,84,90z"/>
		<circle class="st2" cx="144" cy="99.8" r="21"/>
		<path class="st2" d="M84.4,124c0.4,15.3,1.1,28.5,2,38.3c10-11,9.2-28-1.7-38C84.6,124.2,84.5,124.1,84.4,124z"/>
		<circle class="st2" cx="105" cy="48.7" r="12"/>
		<circle class="st2" cx="111" cy="21.7" r="6"/>
		<circle class="st2" cx="150" cy="144.1" r="6"/>
		<circle class="st2" cx="132" cy="151.9" r="12"/>
		<path class="st2" d="M96.5,26.3c0-6.1-3.8-11.7-9.5-13.9c-0.8,7-1.5,16.8-2,28.5C91.7,39.2,96.5,33.2,96.5,26.3z"/>
		<path class="st3" d="M66.5,117.1c-0.4,0-0.8,0-1.2,0.1c0.7-1.9,1.1-4,1.1-6c0-9.9-8-18-18-18c-9.9,0-18,8-18,18
			c0,8.4,5.8,15.7,14,17.6c-8.4,12.3-5.2,29.1,7.1,37.5c11,7.5,25.8,5.8,34.9-3.9c-0.9-9.7-1.6-22.9-2-38.3
			C79.5,119.6,73.1,117.2,66.5,117.1z"/>
		<path class="st3" d="M66,57.7c6.6,0.1,11.9-5.2,12-11.8c0-1.9-0.4-3.8-1.3-5.6c1.5,0.5,3.2,0.8,4.8,0.8c1.2,0,2.4-0.2,3.5-0.5
			c0.5-11.6,1.2-21.4,2-28.5c-1.7-0.7-3.6-1.1-5.5-1.1c-8.3,0-15,6.6-15,14.9c0,2.8,0.8,5.6,2.3,8c-0.9-0.2-1.8-0.3-2.7-0.3
			c-6.6,0-12,5.4-12,12S59.4,57.8,66,57.7L66,57.7z"/>
		<circle class="st3" cx="30.4" cy="71.8" r="12"/>
		<circle class="st3" cx="18.4" cy="111.1" r="6"/>
		<circle class="st3" cx="69" cy="83.8" r="9"/>
		<circle class="st3" cx="39" cy="41.2" r="6"/>
	</g>
</g>
</svg>
