<?xml version="1.0" encoding="utf-8"?>
<!-- Generator: Adobe Illustrator 23.0.2, SVG Export Plug-In . SVG Version: 6.00 Build 0)  -->
<svg version="1.1" id="Layer_1" xmlns="http://www.w3.org/2000/svg" xmlns:xlink="http://www.w3.org/1999/xlink" x="0px" y="0px"
	 viewBox="0 0 180 180" style="enable-background:new 0 0 180 180;" xml:space="preserve">
<style type="text/css">
	.st0{fill:#FFE8A6;}
	.st1{fill:#605175;}
	.st2{fill:#F4D192;}
	.st3{fill:#F4DC9F;}
	.st4{fill:#6D5C87;}
</style>
<title>Asset 4</title>
<g>
	<g id="Layer_1-2">
		<path class="st0" d="M96,90c0-49.7-2.7-90-6-90C40.3,0,0,40.3,0,90s40.3,90,90,90C93.3,180,96,139.7,96,90z"/>
		<path class="st1" d="M90,0c3.3,0,6,40.3,6,90s-2.7,90-6,90c49.7,0,90-40.3,90-90S139.7,0,90,0z"/>
		<path class="st2" d="M66.5,117.1c-0.4,0-0.8,0-1.2,0.1c3.4-9.4-1.5-19.7-10.9-23c-9.4-3.4-19.7,1.5-23,10.9s1.5,19.7,10.9,23
			c0.7,0.2,1.4,0.4,2.1,0.6c-8.5,12.2-5.5,29.1,6.7,37.6s29.1,5.5,37.6-6.7s5.5-29.1-6.7-37.6C77.4,118.8,72,117.1,66.5,117.1z"/>
		<path class="st2" d="M66,57.7c6.6,0,12-5.4,12-12c0-1.9-0.5-3.7-1.3-5.3c6.9,2.5,14.6-0.6,18-7.1c-0.3-6-0.7-11.3-1.1-15.9
			c-5.1-6.5-14.6-7.6-21.1-2.5c-5.8,4.6-7.4,12.7-3.8,19.2c-0.9-0.2-1.8-0.3-2.7-0.3c-6.6,0-12,5.4-12,12S59.4,57.7,66,57.7z"/>
		<path class="st3" d="M95.6,56.1c-0.1-4.9-0.3-9.6-0.5-14.1C92.1,46.3,92.3,52,95.6,56.1z"/>
		<circle class="st2" cx="30.4" cy="71.8" r="12"/>
		<circle class="st2" cx="18.4" cy="111.1" r="6"/>
		<circle class="st2" cx="69" cy="83.8" r="9"/>
		<circle class="st2" cx="39" cy="41.2" r="6"/>
		<circle class="st4" cx="144" cy="99.7" r="21"/>
		<path class="st4" d="M105,36.7c-4,0-7.7,2-9.9,5.3c0.2,4.4,0.3,9.2,0.5,14.1c4,5.2,11.6,6.2,16.8,2.2s6.2-11.6,2.2-16.8
			C112.3,38.4,108.7,36.7,105,36.7z"/>
		<circle class="st4" cx="111" cy="21.7" r="6"/>
		<circle class="st4" cx="150" cy="144.1" r="6"/>
		<circle class="st4" cx="132" cy="151.9" r="12"/>
		<path class="st1" d="M93.6,17.4c0.4,4.6,0.8,9.9,1.1,15.9C97.4,28.2,97,22,93.6,17.4z"/>
	</g>
</g>
</svg>
