<?xml version="1.0" encoding="utf-8"?>
<!-- Generator: Adobe Illustrator 23.0.2, SVG Export Plug-In . SVG Version: 6.00 Build 0)  -->
<svg version="1.1" id="Layer_1" xmlns="http://www.w3.org/2000/svg" xmlns:xlink="http://www.w3.org/1999/xlink" x="0px" y="0px"
	 viewBox="0 0 180 180" style="enable-background:new 0 0 180 180;" xml:space="preserve">
<style type="text/css">
	.st0{fill:#605175;}
	.st1{fill:#6D5C87;}
</style>
<title>Asset 2</title>
<g>
	<g id="Layer_1-2">
		<circle class="st0" cx="90" cy="90" r="90"/>
		<circle class="st1" cx="144" cy="99.8" r="21"/>
		<circle class="st1" cx="48.4" cy="111.1" r="18"/>
		<circle class="st1" cx="66.5" cy="144.1" r="27"/>
		<circle class="st1" cx="66.2" cy="46" r="12"/>
		<circle class="st1" cx="105" cy="48.7" r="12"/>
		<circle class="st1" cx="30.4" cy="71.8" r="12"/>
		<circle class="st1" cx="111" cy="21.7" r="6"/>
		<circle class="st1" cx="18.4" cy="111.1" r="6"/>
		<circle class="st1" cx="150" cy="144.1" r="6"/>
		<circle class="st1" cx="68.5" cy="83.6" r="9"/>
		<circle class="st1" cx="39" cy="41.2" r="6"/>
		<circle class="st1" cx="132" cy="151.9" r="12"/>
		<path class="st1" d="M66.5,26.3c0,8.3,6.7,15,15,15s15-6.7,15-15s-6.7-15-15-15S66.5,18,66.5,26.3z"/>
	</g>
</g>
</svg>
