<svg xmlns="http://www.w3.org/2000/svg" xmlns:xlink="http://www.w3.org/1999/xlink" viewBox="0 0 517.94 542.84"><defs><style>.cls-1,.cls-2,.cls-7{fill:none;}.cls-2{stroke:#fff;stroke-width:2px;}.cls-2,.cls-7{stroke-miterlimit:10;}.cls-3{clip-path:url(#clip-path);}.cls-4{fill:#dfe9ef;}.cls-5{fill:#333;}.cls-6{fill:#29abe2;}.cls-7{stroke:lime;stroke-width:16px;}.cls-8{fill:#f7e98b;}.cls-9{fill:#ddca7a;}</style><clipPath id="clip-path"><path class="cls-1" d="M344.17,283.91a84.82,84.82,0,1,1-84.81-84.81A84.81,84.81,0,0,1,344.17,283.91ZM259.36,106.38A177.54,177.54,0,1,0,436.9,283.91,177.53,177.53,0,0,0,259.36,106.38Z"/></clipPath></defs><title>Asset 22</title><g id="Layer_2" data-name="Layer 2"><g id="Layer_1-2" data-name="Layer 1"><circle class="cls-2" cx="259.36" cy="283.91" r="230.37"/><g class="cls-3"><polygon class="cls-4" points="230.73 373.94 224.49 251.59 261.41 257.25 298.61 252.4 289.06 373.94 285.19 379.22 259.88 382.29 244.53 382.29 230.73 373.94"/><polygon class="cls-4" points="242.78 445.27 239.5 383.82 243.67 380.75 281.2 380.75 281.2 383.82 277.54 445.27 260.86 452.86 242.78 445.27"/><path class="cls-5" d="M277.54,445.28a66.78,66.78,0,0,1-34.75,0l.33,7.58s5.23,2.3,17.05,2.3,17-2.3,17-2.3Z"/><path class="cls-5" d="M289,373.94a140.37,140.37,0,0,1-29.15,3.45,140.41,140.41,0,0,1-29.16-3.45l.73,9.5s8.86,3.45,28.43,3.45S288,383.44,288,383.44Z"/><path class="cls-5" d="M298.68,251.82l.47-11.56c.26-6.39-16.13-11.62-36.62-11.69S225.22,233.63,225,240l-.48,11.57c-.26,6.39,16.13,11.62,36.63,11.69S298.41,258.21,298.68,251.82Z"/><path class="cls-6" d="M261.64,251.7c17.16.06,31.72-3.54,36.15-8.46-3.45-5.2-18.1-9.13-35.83-9.19-17.17-.05-31.72,3.54-36.16,8.46C229.25,247.72,243.9,251.65,261.64,251.7Z"/><circle class="cls-5" cx="261.64" cy="281.34" r="7.17" transform="translate(-67.77 83.6) rotate(-16.1)"/><polygon class="cls-4" points="230.73 258.21 224.49 135.86 261.41 141.52 298.61 136.68 289.06 258.21 285.19 263.5 259.88 266.56 244.53 266.56 230.73 258.21"/><polygon class="cls-4" points="242.78 329.55 239.5 268.1 243.67 265.03 281.2 265.03 281.2 268.1 277.54 329.55 260.86 337.14 242.78 329.55"/><path class="cls-5" d="M277.54,329.56a66.78,66.78,0,0,1-34.75,0l.33,7.58s5.23,2.3,17.05,2.3,17-2.3,17-2.3Z"/><path class="cls-5" d="M289,258.22a140.37,140.37,0,0,1-29.15,3.45,140.41,140.41,0,0,1-29.16-3.45l.73,9.5s8.86,3.45,28.43,3.45S288,267.72,288,267.72Z"/><path class="cls-5" d="M298.68,136.1l.47-11.56c.26-6.39-16.13-11.63-36.62-11.69S225.22,117.91,225,124.3l-.48,11.57c-.26,6.39,16.13,11.62,36.63,11.69S298.41,142.49,298.68,136.1Z"/><path class="cls-6" d="M261.64,136c17.16.06,31.72-3.54,36.15-8.46-3.45-5.2-18.1-9.13-35.83-9.19-17.17,0-31.72,3.54-36.16,8.46C229.25,132,243.9,135.92,261.64,136Z"/><path class="cls-6" d="M265,136c17.16.06,31.72-3.54,36.15-8.46-3.45-5.2-18.1-9.13-35.83-9.19-17.17,0-31.72,3.54-36.16,8.46C232.57,132,247.22,135.92,265,136Z"/><circle class="cls-5" cx="261.64" cy="165.62" r="7.17" transform="translate(-35.67 79.06) rotate(-16.1)"/></g><line class="cls-7" x1="261.88" x2="261.88" y2="75.47"/><line class="cls-2" x1="261.88" y1="483.98" x2="261.88" y2="542.84"/><line class="cls-2" x1="517.94" y1="275.99" x2="459.07" y2="275.99"/><line class="cls-2" x1="58.87" y1="275.99" y2="275.99"/><circle class="cls-8" cx="258.4" cy="284.92" r="60.54" transform="translate(-125.78 266.17) rotate(-45)"/><circle class="cls-9" cx="294.72" cy="291.48" r="14.12"/><circle class="cls-9" cx="230.4" cy="299.14" r="12.11"/><circle class="cls-9" cx="242.58" cy="321.34" r="18.16"/><circle class="cls-9" cx="242.26" cy="255.15" r="8.07"/><circle class="cls-9" cx="268.49" cy="257.17" r="8.07"/><circle class="cls-9" cx="218.29" cy="272.66" r="8.07"/><circle class="cls-9" cx="272.52" cy="239.01" r="4.04"/><circle class="cls-9" cx="210.22" cy="299.14" r="4.04"/><circle class="cls-9" cx="298.76" cy="321.33" r="4.04"/><circle class="cls-9" cx="244.27" cy="280.73" r="6.05"/><circle class="cls-9" cx="224.1" cy="252.13" r="4.04"/><circle class="cls-9" cx="286.65" cy="326.53" r="8.07"/><path class="cls-9" d="M242.58,242A10.09,10.09,0,1,0,252.67,232,10.09,10.09,0,0,0,242.58,242Z"/></g></g></svg>