<svg xmlns="http://www.w3.org/2000/svg" viewBox="0 0 401.44 401.44"><defs><style>.cls-1{fill:#333;}.cls-2{fill:#cad5dd;}.cls-3{fill:#fff;}.cls-4{fill:#dfe9ef;}.cls-5{fill:#29abe2;}</style></defs><title>Asset 24</title><g id="Layer_2" data-name="Layer 2"><g id="Layer_1-2" data-name="Layer 1"><polygon class="cls-1" points="98.78 401.44 110.94 401.44 117.22 386.59 104.39 386.59 98.78 401.44"/><polygon class="cls-1" points="284.27 386.59 290.51 401.44 302.64 401.44 297.06 386.59 284.27 386.59"/><path class="cls-2" d="M224.82,188.52l-47.88.42L104.4,386.59h12.82l76.45-186.52a28.8,28.8,0,0,0,7.06.87,29.62,29.62,0,0,0,7.46-1l76.09,186.62h12.79Z"/><polygon class="cls-2" points="211.11 149.11 190.87 149.11 195.48 386.59 206.51 386.59 211.11 149.11"/><polygon class="cls-1" points="195.48 386.59 195.76 401.44 206.24 401.44 206.51 386.59 195.48 386.59"/><ellipse class="cls-1" cx="200.71" cy="171.44" rx="34.41" ry="34.37" transform="translate(-0.18 0.21) rotate(-0.06)"/><circle class="cls-3" cx="200.71" cy="171.44" r="25.35" transform="translate(-34.49 291.27) rotate(-67.5)"/><path class="cls-1" d="M161.56,23.21a4,4,0,0,0-5.36,2.84l-8.55,34.44A4.38,4.38,0,0,0,151,65.84l67.47,14.38A4.72,4.72,0,0,0,224,76.77l5.87-23.64a5.19,5.19,0,0,0-3.16-6Z"/><path class="cls-1" d="M160.58,111.8a5.13,5.13,0,0,0-6.89,3.65l-11,44.3a5.63,5.63,0,0,0,4.3,6.88l86.78,18.5a6.09,6.09,0,0,0,7.11-4.44l7.55-30.4a6.67,6.67,0,0,0-4.06-7.67Z"/><polygon class="cls-4" points="274.92 95.91 256.31 170.85 380.93 200.81 396.72 137.17 274.92 95.91"/><path class="cls-1" d="M371.36,100a6.41,6.41,0,0,0-7.61,4.69L356.4,134.6a6.6,6.6,0,0,1-7.63,4.86l-21.18-4.23a7.3,7.3,0,0,0-8.13,4.73l-3.21,9.66a5.54,5.54,0,0,0,4.15,7.3l44,9.76a6.34,6.34,0,0,0,7.53-4.75L384,109.25a6.29,6.29,0,0,0-4.72-7.5Z"/><polygon class="cls-4" points="60.69 5.93 29.08 133.21 253.76 181.1 277.47 85.65 60.69 5.93"/><path class="cls-1" d="M277.47,85.65,263,80.33c8.15,2.36,9.17,26.7,2.63,53.05s-18.73,46.88-26.87,44.53l15,3.2c8.15,2.35,20.05-17.11,26.6-43.47S285.61,88,277.47,85.65Z"/><path class="cls-1" d="M60.69,5.93,41,.26C30.18-2.88,14.3,23.06,5.57,58.2s-7,66.18,3.85,69.32l19.66,5.69c10.86,3.13,26.73-22.81,35.47-58S71.54,9.08,60.69,5.93Z"/><path class="cls-5" d="M44.9,69.47c7.32-29.44,7.26-55.94.68-65.62C35.2,7.58,22.3,31.07,14.74,61.5,7.42,91,7.47,117.44,14.05,127.12,24.44,123.38,37.34,99.89,44.9,69.47Z"/><path class="cls-1" d="M396.72,137.17l-11.39-3.86c5.42,1.57,7.07,17.88,2.7,35.45S374.68,199.57,369.25,198l11.67,2.81c5.42,1.56,13.37-11.41,17.73-29S402.15,138.74,396.72,137.17Z"/><circle class="cls-1" cx="299.68" cy="123.66" r="5.75"/></g></g></svg>