<?xml version="1.0" encoding="utf-8"?>
<!-- Generator: Adobe Illustrator 23.0.2, SVG Export Plug-In . SVG Version: 6.00 Build 0)  -->
<svg version="1.1" id="Layer_1" xmlns="http://www.w3.org/2000/svg" xmlns:xlink="http://www.w3.org/1999/xlink" x="0px" y="0px"
	 viewBox="0 0 233.9 408.2" style="enable-background:new 0 0 233.9 408.2;" xml:space="preserve">
<style type="text/css">
	.st0{fill:#333333;}
	.st1{fill:#CAD5DD;}
	.st2{fill:#FFFFFF;}
	.st3{fill:#F7E98B;}
</style>
<title>Asset 25</title>
<g>
	<g id="Layer_1-2">
		<polygon class="st0" points="0,408.2 12.2,408.2 18.5,393.3 5.6,393.3 		"/>
		<polygon class="st0" points="186.1,393.3 192.4,408.2 204.6,408.2 198.9,393.3 		"/>
		<path class="st1" d="M126.5,194.6l-48,0.4L5.6,393.3h12.9l76.7-187.1c4.8,1.2,9.8,1.2,14.6-0.1l76.3,187.3H199L126.5,194.6z"/>
		<polygon class="st1" points="112.7,166.9 92.4,166.9 97,393.3 108.1,393.3 		"/>
		<polygon class="st0" points="97,393.3 97.3,408.2 107.8,408.2 108.1,393.3 		"/>
		<path class="st0" d="M70.5,163.9c-7.5,17.6,0.7,37.8,18.3,45.3c17.6,7.5,37.8-0.7,45.3-18.3c3.7-8.6,3.7-18.4,0-27H70.5z"/>
		<path class="st2" d="M77.4,171.9c-3,13.7,5.6,27.3,19.3,30.4c13.7,3,27.3-5.6,30.4-19.3c0.8-3.6,0.8-7.4,0-11H77.4z"/>
		<path class="st2" d="M146.2,78.5V142H46.3V78.5H146.2z M163.3,110.3c0,2.6-2.2,4.6-4.8,4.6c-2.6,0-4.6-2.2-4.6-4.8
			c0-2.5,2.1-4.6,4.7-4.6C161.2,105.5,163.3,107.7,163.3,110.3C163.3,110.3,163.3,110.3,163.3,110.3L163.3,110.3z M36.4,118v-15.5
			c-0.2-1.1,0.4-2.1,1.5-2.4c1.1-0.2,2.1,0.4,2.4,1.5c0.1,0.3,0.1,0.6,0,0.9V118c0.2,1.1-0.4,2.1-1.5,2.4c-1.1,0.2-2.1-0.4-2.4-1.5
			C36.4,118.6,36.4,118.3,36.4,118z M30.7,86.4V134c-0.1,8.7,6.9,15.8,15.6,15.9h109.2c8.7-0.1,15.7-7.2,15.6-15.9V86.5
			c0.1-8.7-6.9-15.8-15.6-15.9H46.3C37.6,70.7,30.6,77.8,30.7,86.4C30.7,86.5,30.7,86.5,30.7,86.4L30.7,86.4z"/>
		<circle class="st3" cx="98.6" cy="110.9" r="13"/>
		<polygon class="st2" points="76.2,32.3 103.8,58.7 131.5,32.3 113.2,32.3 113.2,0 95.4,0 95.4,32.3 		"/>
		<path class="st2" d="M196.4,96.3c-6.5,5.7-7.1,15.6-1.4,22c1.5,1.7,3.3,3,5.3,3.9l-4.3,9.3c-13-6-18.7-21.3-12.8-34.3
			c2.1-4.5,5.4-8.4,9.6-11l-2.2-5.9l15.7,7.2l-7.4,16.1L196.4,96.3z"/>
		<path class="st2" d="M218.1,119.5c1.6-1.4,2.9-3.1,3.8-5c3.6-7.8,0.2-17.1-8.4-21.1l4.3-9.3c13.5,6.2,19.9,21.9,14,34.8
			c-2,4.4-5.2,8-9.3,10.6l2.9,6.9l-17.5-8l7.3-16L218.1,119.5z"/>
	</g>
</g>
</svg>
