<svg xmlns="http://www.w3.org/2000/svg" viewBox="0 0 262.92 297.16"><defs><style>.cls-1{fill:#f7e98b;}.cls-2{fill:#ddca7a;}.cls-3{fill:#ffdd67;}.cls-4{fill:#eba352;}.cls-5,.cls-6{fill:none;stroke-miterlimit:10;stroke-width:3px;}.cls-5{stroke:#eba352;}.cls-6{stroke:#ffdd67;}</style></defs><title>Asset 19</title><g id="Layer_2" data-name="Layer 2"><g id="Layer_1-2" data-name="Layer 1"><circle class="cls-1" cx="171.46" cy="91.45" r="91.45" transform="translate(-14.45 148.03) rotate(-45)"/><circle class="cls-2" cx="226.33" cy="101.36" r="21.34"/><circle class="cls-2" cx="129.15" cy="112.94" r="18.29"/><circle class="cls-2" cx="147.56" cy="146.47" r="27.44"/><circle class="cls-2" cx="147.07" cy="46.48" r="12.19"/><circle class="cls-2" cx="186.7" cy="49.53" r="12.19"/><circle class="cls-2" cx="110.86" cy="72.92" r="12.19"/><circle class="cls-2" cx="192.8" cy="22.09" r="6.1"/><circle class="cls-2" cx="98.67" cy="112.93" r="6.1"/><circle class="cls-2" cx="232.43" cy="146.46" r="6.1"/><circle class="cls-2" cx="150.12" cy="85.12" r="9.15"/><circle class="cls-2" cx="119.64" cy="41.91" r="6.1"/><circle class="cls-2" cx="214.14" cy="154.32" r="12.19"/><path class="cls-2" d="M147.56,26.67A15.25,15.25,0,1,0,162.8,11.43,15.24,15.24,0,0,0,147.56,26.67Z"/><path class="cls-3" d="M30.66,199c5.94,7.17,2.88,14.61,1.05,18l-.87,1.58s-.11,1.58-.51,3.84l.26.4s12.11-10.74,15.35-15c3.59-4.74,21.9-23,26.15-27.77,5-5.56,9.81-8.45,15.77-2.49s3.2,12.55-1.62,16.64c-6.65,5.63-27.75,26.09-27.75,26.09,3.32-2,6.95-3.34,10.9,1.53,4.53,5.58,3.52,8.49.61,11.86,6.73-1.77,9.78,1.91,11.34,4.52C84,242.6,78.6,249.93,78.64,250c6.1-3.34,7.47-.33,10.07,3.18,1.6,2.15,1.87,6.24-.6,10.27S85.66,272.28,56.66,294c-7.62,5.71-16.72,3.17-27-4.09C22.7,285,13,278.57,6.49,273a16.24,16.24,0,0,1-1.62-1.59A14.44,14.44,0,0,1,.16,258.54l4.78-31.17a.36.36,0,0,0,0-.11A7.74,7.74,0,0,1,6.85,222,73.9,73.9,0,0,0,19,200.63C20.33,197.06,26.55,194.08,30.66,199Z"/><path class="cls-4" d="M87,250.81c-4.78-6.46-13,2.61-8.2.14C83.81,248.35,87,250.81,87,250.81Z"/><path class="cls-4" d="M80,236.25c-6.9-8.47-14.66.88-9.67-1.16S80,236.25,80,236.25Z"/><path class="cls-4" d="M69.25,221.63C62.36,213.16,54,223.07,59,221S69.25,221.63,69.25,221.63Z"/><path class="cls-4" d="M30.59,222.82A417.73,417.73,0,0,1,71.7,179.51c3.6-3.29,8.92-8.59,15.32-2.75C78,172.06,57.72,198.71,30.59,222.82Z"/><path class="cls-4" d="M25.46,196.43a6.49,6.49,0,0,0-2.84,3.17A73.76,73.76,0,0,1,10.46,221a7.77,7.77,0,0,0-1.89,5.28.43.43,0,0,1,0,.11L3.77,257.51a14.43,14.43,0,0,0,4.71,12.86A16.33,16.33,0,0,0,10.1,272c6.49,5.57,16.21,12,23.16,16.95,7.35,5.18,14.08,7.93,20.11,7-6.9,3-14.86.25-23.72-6C22.7,285,13,278.57,6.49,273a17.49,17.49,0,0,1-1.62-1.6A14.43,14.43,0,0,1,.16,258.54l4.78-31.16,0-.11A7.72,7.72,0,0,1,6.85,222,73.83,73.83,0,0,0,19,200.64,7.12,7.12,0,0,1,25.46,196.43Z"/><path class="cls-4" d="M22.52,227.27s4.42-8.29,6.63-12.06c1.85-3.14,4.05-10,2-15.61,5.34,7,2.39,14.13.61,17.4l-.87,1.58a11.53,11.53,0,0,1-.25,4.24A15.39,15.39,0,0,0,22.52,227.27Z"/><path class="cls-4" d="M57.59,222.7a13.43,13.43,0,0,0-1,3.36,32.08,32.08,0,0,1-.8,3.53A8.69,8.69,0,0,1,53.83,233a6.16,6.16,0,0,1-3.38,1.84A18,18,0,0,0,52.54,232a15.77,15.77,0,0,0,1.25-3A30.22,30.22,0,0,1,55,225.54,5.76,5.76,0,0,1,57.59,222.7Z"/><path class="cls-4" d="M66.76,236.7a13.86,13.86,0,0,0-1,3.36,29.94,29.94,0,0,1-.8,3.53A8.57,8.57,0,0,1,63,247a6.1,6.1,0,0,1-3.38,1.84A17.54,17.54,0,0,0,61.71,246,15.77,15.77,0,0,0,63,243a31.71,31.71,0,0,1,1.24-3.41A5.76,5.76,0,0,1,66.76,236.7Z"/><path class="cls-4" d="M75.88,252.88a13.86,13.86,0,0,0-1,3.36,29.94,29.94,0,0,1-.8,3.53,8.7,8.7,0,0,1-1.94,3.39A6.16,6.16,0,0,1,68.74,265a18,18,0,0,0,2.09-2.83,15.77,15.77,0,0,0,1.25-3,28.39,28.39,0,0,1,1.24-3.41A5.72,5.72,0,0,1,75.88,252.88Z"/><path class="cls-5" d="M71.85,170.72a15.42,15.42,0,1,1,21.81,21.8"/><path class="cls-6" d="M63.25,162.11a27.59,27.59,0,0,1,39,39"/></g></g></svg>