<svg xmlns="http://www.w3.org/2000/svg" viewBox="0 0 298.74 276.56"><defs><style>.cls-1{fill:#464d51;opacity:0.5;}.cls-10,.cls-2{fill:#fff;}.cls-3{fill:#42ade2;}.cls-4{fill:#d0d0d0;}.cls-5{fill:#94989b;}.cls-6{fill:#7f8285;}.cls-7{fill:#646669;}.cls-8{fill:#3e4347;}.cls-9{fill:#428bc1;}.cls-10{font-size:32.34px;font-family:Roboto-Light, Roboto;font-weight:300;}.cls-11{font-size:79.68px;fill:#dfe9ef;font-family:Roboto-Regular, Roboto;}</style></defs><title>Asset 23</title><g id="Layer_2" data-name="Layer 2"><g id="Layer_1-2" data-name="Layer 1"><path class="cls-1" d="M298.74,4.35C293.37,4,288,3.83,282.5,3.83,140,3.83,24,119.81,24,263.27H136.73c0-81.29,65.4-146.68,145.77-146.68a145.15,145.15,0,0,1,16.24.91Z"/><polygon class="cls-2" points="58.36 233.51 33.37 230.39 33.23 231.46 58.22 234.59 58.36 233.51"/><polygon class="cls-2" points="63.59 206.43 39.16 200.27 38.9 201.32 63.32 207.48 63.59 206.43"/><rect class="cls-2" x="46.72" y="210.28" width="1.09" height="25.19" transform="translate(-180.36 232.82) rotate(-80.53)"/><polygon class="cls-2" points="57.34 242.65 32.25 240.54 32.16 241.62 57.26 243.73 57.34 242.65"/><polygon class="cls-2" points="65.9 197.52 41.75 190.37 41.44 191.41 65.59 198.56 65.9 197.52"/><rect class="cls-2" x="81.51" y="120.31" width="1.08" height="25.19" transform="translate(-74.11 129.59) rotate(-57.09)"/><polygon class="cls-2" points="75.38 171.62 52.29 161.56 51.86 162.55 74.95 172.61 74.95 172.61 90.34 179.32 90.78 178.33 75.38 171.62 75.38 171.62"/><polygon class="cls-2" points="36.39 211.25 61.05 216.4 61.05 216.4 77.48 219.83 77.7 218.77 36.61 210.18 36.39 211.25"/><rect class="cls-2" x="43.71" y="239.24" width="1.09" height="25.19" transform="matrix(0.04, -1, 1, 0.04, -209.27, 285.06)"/><rect class="cls-2" x="51.63" y="240.58" width="1.08" height="41.98" transform="translate(-209.57 312.84) rotate(-89.8)"/><rect class="cls-2" x="98.7" y="96.8" width="1.08" height="25.19" transform="translate(-48.34 115.41) rotate(-50.12)"/><polygon class="cls-2" points="68.8 188.8 44.96 180.66 44.61 181.68 68.45 189.82 68.8 188.8"/><polygon class="cls-2" points="135.2 90.98 118.73 71.92 117.91 72.63 134.38 91.69 135.2 90.98"/><polygon class="cls-2" points="172.83 64.64 160.54 42.66 159.6 43.19 171.89 65.17 172.83 64.64"/><rect class="cls-2" x="92.77" y="104.49" width="1.08" height="25.19" transform="translate(-56.39 119.69) rotate(-52.44)"/><polygon class="cls-2" points="98.09 131.69 77.52 117.16 76.89 118.05 111.18 142.26 111.81 141.38 98.09 131.69 98.09 131.69"/><polygon class="cls-2" points="79.4 163.34 56.74 152.34 56.27 153.31 78.93 164.31 79.4 163.34"/><rect class="cls-2" x="59.5" y="163.52" width="1.09" height="25.19" transform="translate(-125.86 168.4) rotate(-68.8)"/><rect class="cls-2" x="76.46" y="128.62" width="1.08" height="25.19" transform="translate(-83.74 135.69) rotate(-59.43)"/><polygon class="cls-2" points="83.41 155.05 61.22 143.13 60.71 144.09 82.9 156.01 83.41 155.05"/><rect class="cls-2" x="228.98" y="17.09" width="1.09" height="25.19" transform="translate(-0.88 51.49) rotate(-12.78)"/><polygon class="cls-2" points="196.81 26.28 205.35 49.97 205.35 49.97 211.05 65.77 212.07 65.4 197.83 25.91 196.81 26.28"/><polygon class="cls-2" points="246.33 13.87 249.88 38.8 249.88 38.8 252.25 55.42 253.32 55.27 247.4 13.71 246.33 13.87"/><polygon class="cls-2" points="236.22 15.44 240.78 40.21 241.85 40.01 237.29 15.24 236.22 15.44"/><rect class="cls-2" x="219.57" y="19.51" width="1.08" height="25.19" transform="translate(-0.75 58.56) rotate(-15.13)"/><rect class="cls-2" x="210.18" y="22.02" width="1.08" height="25.19" transform="translate(-0.67 64.88) rotate(-17.48)"/><rect class="cls-2" x="257.71" y="12.22" width="1.09" height="25.19" transform="translate(-1.19 26.07) rotate(-5.77)"/><polygon class="cls-2" points="295.83 11.71 296.19 53.69 297.27 53.68 296.92 11.7 295.83 11.71"/><rect class="cls-2" x="274.76" y="23.29" width="25.19" height="1.08" transform="translate(258.01 310.67) rotate(-88.9)"/><rect class="cls-2" x="277.11" y="11.23" width="1.08" height="25.19" transform="translate(-0.42 5.58) rotate(-1.15)"/><polygon class="cls-2" points="266.65 11.78 268.17 36.92 269.25 36.85 267.74 11.71 266.65 11.78"/><rect class="cls-2" x="149.06" y="51.41" width="1.09" height="25.19" transform="translate(-10.28 94.24) rotate(-33.87)"/><polygon class="cls-2" points="128.37 97.16 111.14 78.78 110.35 79.53 139.06 110.14 139.86 109.4 128.37 97.16 128.37 97.16"/><rect class="cls-2" x="133.46" y="62.99" width="1.08" height="25.19" transform="translate(-17.91 99.91) rotate(-38.52)"/><polygon class="cls-2" points="102.95 86.57 120.91 104.23 121.67 103.46 103.71 85.8 102.95 86.57"/><polygon class="cls-2" points="133.9 59.92 148.78 80.25 149.66 79.61 134.78 59.28 133.9 59.92"/><polygon class="cls-2" points="187.21 29.83 196.72 53.16 197.72 52.74 188.21 29.42 187.21 29.83"/><polygon class="cls-2" points="168.66 38.46 180.04 60.92 181.01 60.43 169.63 37.96 168.66 38.46"/><rect class="cls-2" x="105.23" y="89.61" width="1.09" height="25.19" transform="translate(-40.99 111.91) rotate(-47.8)"/><polygon class="cls-2" points="177.87 33.99 188.32 56.91 189.31 56.46 178.86 33.54 177.87 33.99"/><polygon class="cls-2" points="150.86 48.5 164.03 69.97 164.03 69.97 172.81 84.28 173.74 83.71 151.78 47.94 150.86 48.5"/><polygon class="cls-2" points="145.9 169.41 161.72 181.05 162.33 180.15 146.55 168.54 145.9 169.41"/><polygon class="cls-2" points="166.64 144.51 179.9 159.02 180.67 158.26 167.44 143.77 166.64 144.51"/><polygon class="cls-2" points="120.8 228.85 139.72 233.51 139.95 232.45 121.06 227.79 120.8 228.85"/><polygon class="cls-2" points="117.39 261.08 136.74 261.96 136.75 260.87 117.45 260 117.39 261.08"/><polygon class="cls-2" points="130.42 197.9 148.15 206.2 148.57 205.2 130.88 196.91 130.42 197.9"/><polygon class="cls-2" points="283 116.59 284.09 116.6 284.98 96.94 283.9 96.89 283 116.59"/><polygon class="cls-2" points="191.84 124.11 202.01 140.93 202.91 140.33 192.77 123.56 191.84 124.11"/><polygon class="cls-2" points="251.62 99.84 254.58 119.27 255.64 119.07 252.69 99.68 251.62 99.84"/><polygon class="cls-2" points="220.53 109.04 227.22 127.49 228.22 127.08 221.55 108.67 220.53 109.04"/><polygon class="cls-3" points="63.16 75.68 77.6 77.72 75.09 63.36 63.16 75.68"/><path class="cls-4" d="M60.55,61.27a13.29,13.29,0,0,0,.32,18.79L79.35,61A13.29,13.29,0,0,0,60.55,61.27Z"/><path class="cls-5" d="M56.23,57.1C63.09,50,63.09,50,66,52.76s2.85,2.75-4,9.85-6.86,7.1-9.71,4.34S49.37,64.19,56.23,57.1Z"/><path class="cls-6" d="M39.47,40.89c6.86-7.1,6.86-7.1,9.71-4.34l11.42,11c2.85,2.76,2.85,2.76-4,9.86s-6.86,7.1-9.72,4.34l-11.4-11C32.61,48,32.61,48,39.47,40.89Z"/><path class="cls-7" d="M35.55,37.1c5.14-5.32,5.14-5.32,7.28-3.25s2.14,2.07-3,7.39-5.14,5.32-7.28,3.25S30.4,42.42,35.55,37.1Z"/><path class="cls-5" d="M64.44,76.37l11.56,2a1.86,1.86,0,1,0,3.14-1.56,1.75,1.75,0,0,0-1-.49L75.78,64.64,74.48,66l.29-.06L77,76.49a2.05,2.05,0,0,0-.45.34,2.34,2.34,0,0,0-.24.31l-10.6-1.82,0-.28Z"/><rect class="cls-8" x="54.37" y="39.79" width="3.42" height="2.09" transform="translate(-12.26 52.75) rotate(-45.95)"/><rect class="cls-8" x="38.27" y="56.45" width="3.42" height="2.09" transform="translate(-29.14 46.28) rotate(-45.97)"/><path class="cls-9" d="M49.27,31.88a.76.76,0,0,1,0-1.08L78.78.22a.76.76,0,0,1,1.08,0l16,15.46a.76.76,0,0,1,0,1.08L66.35,47.35a.77.77,0,0,1-1.08,0Z"/><path class="cls-9" d="M49.27,31.88a.76.76,0,0,1,0-1.08L78.78.22a.76.76,0,0,1,1.08,0l16,15.46a.76.76,0,0,1,0,1.08L66.35,47.35a.77.77,0,0,1-1.08,0Z"/><path class="cls-9" d="M.24,82.6a.77.77,0,0,1,0-1.08L29.76,50.94a.75.75,0,0,1,1.07,0l16,15.46a.77.77,0,0,1,.05,1.08L17.32,98.07a.76.76,0,0,1-1.07,0Z"/><polygon class="cls-3" points="93.96 16.27 92.84 15.2 66.28 15.65 58.19 24.02 86.95 23.53 93.96 16.27"/><polygon class="cls-3" points="52.28 32.37 78.84 31.92 82.89 27.73 54.14 28.22 51.16 31.29 52.28 32.37"/><polygon class="cls-3" points="44.94 67 43.82 65.92 17.26 66.37 9.16 74.75 37.92 74.26 44.94 67"/><polygon class="cls-3" points="3.25 83.09 29.82 82.64 33.87 78.45 5.11 78.94 2.14 82.02 3.25 83.09"/><text class="cls-10" transform="translate(175.13 267.8)">latitude</text><text class="cls-11" transform="translate(171.03 233.31)">34ยบ</text></g></g></svg>